# xmcd
#
# Track frame offsets:
#	150
#	14376
#	27113
#	45354
#	60463
#	73552
#	91186
#	104534
#	119495
#	139005
#	157138
#	176943
#	194010
#	208005
#	229161
#	246237
#	260448
#	286340
#
# Disc length: 3946 seconds
#
# Revision: 0
# Processed by: cddbd v1.5.2PL0 Copyright (c) Steve Scherf et al.
# Submitted via: EasyCDDAExtractor 16.0.6.1
#
DISCID=080f6812
DTITLE=Συλλογικός δίσκος - Εντέχνως Ελληνικά 6
DYEAR=2011
DGENRE=Έντεχνη
TTITLE0=Μητσιάς Μανώλης - Το πάθος που διώκεται [Μ. Θεοδωράκης-Λ. Νικολακοπούλ
TTITLE0=ου]
TTITLE1=Φαραντούρη Μαρία - Του μικρού βοριά [Μ. Θεοδωράκης-Οδ. Ελύτης
TTITLE2=Παπάζογλου Νίκος - Αχ, Ελλάδα [Β. Αλλαγιάννη-Μαν. Ρασούλης]
TTITLE3=Αρβανιτάκη Ελευθερία - Ερωτικό Ν. Ξυδάκης-Ν. Λαπαθιώτης]
TTITLE4=Μακεδόνας Κώστας - Το ποδήλατο [Χρ. Νικολόπουλος-Ά. Δαβαράκης]
TTITLE5=Λουδοβίκος των Ανωγείων - Ανάθεμά σε, έρωτα [ιδίου-Α. Χαιρέτης/Μ.Σταυρ
TTITLE5=ακάκης/Λ.Καλομοίρης]
TTITLE6=Ζιώγαλας Νίκος-Φάμελλος Μανώλης-Ποδηλάτες - Βασιλική [Ν. Ζιώγαλας-παρα
TTITLE6=δοσιακοί]
TTITLE7=Χειμερινοί Κολυμβητές - Το πολλαπλό σου είδωλο [Αργ. Μπακιρτζής]
TTITLE8=Λουδοβίκος των Ανωγείων - Φραγκοκάστελο [Λουδοβίκος Ανωγείων]
TTITLE9=Τρίφωνο - Νυχτοπαίδι Κ. Λειβαδάς]
TTITLE10=Τσαλιγοπούλου Ελένη - Σαν της βροχούλας το νερό [Βαγγ. Κορακάκης]
TTITLE11=Κανά Μελίνα - Ξύπνησα νωρίς [Χρ. Νικολόπουλος-Φ. Λαμπρίδη]
TTITLE12=Καζούλλης Βασίλης - Είν' το τραγούδι [Βασ. Καζούλλης]
TTITLE13=Θηβαίος Χρήστος - Blues on the road [Θ. Μικρούτσικος-Ά. Αλκαίος]
TTITLE14=Δημητριάδης Γιώργος - Σάββατο [Γ. Δημητριάδης]
TTITLE15=Γλυκερία-Κίτρινα Ποδήλατα - Πότε θα με μάθεις [Κίτρινα Ποδήλατα]
TTITLE16=Στόκας Μπ.-Πλιάτσικας Φ.-ΜύρωναςΣ-Σπηλ/ούλου - Υπάρχουν χρυσόψαρα εδώ
TTITLE16=[Μ. Ξυδούς/Π. Σπυρόπουλος-ιδίου]
TTITLE17=Μαρκέλλου Μάρω - Ε, δεν ήταν και τίποτα [Μ. Μαρκέλλου]
EXTD=
EXTT0=
EXTT1=
EXTT2=
EXTT3=
EXTT4=
EXTT5=
EXTT6=
EXTT7=
EXTT8=
EXTT9=
EXTT10=
EXTT11=
EXTT12=
EXTT13=
EXTT14=
EXTT15=
EXTT16=
EXTT17=
PLAYORDER=
